<svg width="21" height="20" viewBox="0 0 21 20" fill="none" xmlns="http://www.w3.org/2000/svg">
<path d="M17.1663 6.87508V15.0001C17.1663 17.5001 15.6747 18.3334 13.833 18.3334H7.16634C5.32467 18.3334 3.83301 17.5001 3.83301 15.0001V6.87508C3.83301 4.16675 5.32467 3.54175 7.16634 3.54175C7.16634 4.05841 7.37465 4.52508 7.71632 4.86675C8.05799 5.20841 8.52467 5.41675 9.04134 5.41675H11.958C12.9913 5.41675 13.833 4.57508 13.833 3.54175C15.6747 3.54175 17.1663 4.16675 17.1663 6.87508Z" fill="#A3C2A2" stroke="#292D32" stroke-width="0.5" stroke-linecap="round" stroke-linejoin="round"/>
<path d="M13.8337 3.54175C13.8337 4.57508 12.992 5.41675 11.9587 5.41675H9.04199C8.52533 5.41675 8.05864 5.20841 7.71697 4.86674C7.3753 4.52508 7.16699 4.05841 7.16699 3.54175C7.16699 2.50841 8.00866 1.66675 9.04199 1.66675H11.9587C12.4753 1.66675 12.942 1.87508 13.2837 2.21675C13.6253 2.55842 13.8337 3.02508 13.8337 3.54175Z" fill="#A3C2A2" stroke="#292D32" stroke-width="0.5" stroke-linecap="round" stroke-linejoin="round"/>
<path d="M7.16699 10.8333H10.5003" stroke="#292D32" stroke-width="0.5" stroke-linecap="round" stroke-linejoin="round"/>
<path d="M7.16699 14.1667H13.8337" stroke="#292D32" stroke-width="0.5" stroke-linecap="round" stroke-linejoin="round"/>
</svg>
