<svg width="25" height="24" viewBox="0 0 25 24" fill="none" xmlns="http://www.w3.org/2000/svg">
<path opacity="0.4" d="M12.5 22.01C18.0228 22.01 22.5 17.5329 22.5 12.01C22.5 6.48716 18.0228 2.01001 12.5 2.01001C6.97715 2.01001 2.5 6.48716 2.5 12.01C2.5 17.5329 6.97715 22.01 12.5 22.01Z" fill="#488746" fill-opacity="0.5"/>
<path d="M12.5 6.93994C10.43 6.93994 8.75 8.61994 8.75 10.6899C8.75 12.7199 10.34 14.3699 12.45 14.4299C12.48 14.4299 12.52 14.4299 12.54 14.4299C12.56 14.4299 12.59 14.4299 12.61 14.4299C12.62 14.4299 12.63 14.4299 12.63 14.4299C14.65 14.3599 16.24 12.7199 16.25 10.6899C16.25 8.61994 14.57 6.93994 12.5 6.93994Z" fill="#488746" fill-opacity="0.5"/>
<path d="M19.2802 19.36C17.5002 21 15.1202 22.01 12.5002 22.01C9.88022 22.01 7.50021 21 5.72021 19.36C5.96021 18.45 6.61022 17.62 7.56021 16.98C10.2902 15.16 14.7302 15.16 17.4402 16.98C18.4002 17.62 19.0402 18.45 19.2802 19.36Z" fill="#488746" fill-opacity="0.5"/>
</svg>
