<svg width="21" height="20" viewBox="0 0 21 20" fill="none" xmlns="http://www.w3.org/2000/svg">
<path d="M18.8337 9.99992V14.1666C18.8337 16.6666 17.167 18.3333 14.667 18.3333H6.33366C3.83366 18.3333 2.16699 16.6666 2.16699 14.1666V9.99992C2.16699 7.73325 3.53366 6.14992 5.65866 5.88325C5.87533 5.84992 6.10033 5.83325 6.33366 5.83325H14.667C14.8837 5.83325 15.092 5.84158 15.292 5.87491C17.442 6.12491 18.8337 7.71659 18.8337 9.99992Z" fill="#A3C2A2"/>
<path d="M15.2925 5.87508C15.0925 5.84175 14.8842 5.83342 14.6675 5.83342H6.33418C6.10085 5.83342 5.87585 5.85009 5.65918 5.88342C5.77585 5.65009 5.94251 5.43342 6.14251 5.23342L8.85085 2.51675C9.99251 1.38341 11.8425 1.38341 12.9842 2.51675L14.4425 3.99176C14.9758 4.51676 15.2592 5.18341 15.2925 5.87508Z" fill="#DAE7DA"/>
<path d="M18.8337 10.4167H16.3337C15.417 10.4167 14.667 11.1667 14.667 12.0834C14.667 13.0001 15.417 13.7501 16.3337 13.7501H18.8337" fill="#D9D9D9"/>
</svg>
